<svg xmlns="http://www.w3.org/2000/svg" width="20" height="19.196" viewBox="0 0 20 19.196">
  <path id="Path_35820" data-name="Path 35820" d="M442.271,488a.505.505,0,0,1-.482-.664,12.271,12.271,0,0,1,1.813-3.372.506.506,0,0,1,.8,0,12.271,12.271,0,0,1,1.813,3.372.505.505,0,0,1-.482.664Zm1.331,12.036a.506.506,0,0,0,.8,0,12.286,12.286,0,0,0,1.813-3.372.505.505,0,0,0-.482-.664h-3.458a.505.505,0,0,0-.482.664A12.286,12.286,0,0,0,443.6,500.036Zm-2.505-9.6a12.579,12.579,0,0,0,0,3.118.5.5,0,0,0,.5.441h4.8a.5.5,0,0,0,.5-.441,12.579,12.579,0,0,0,0-3.118.5.5,0,0,0-.5-.441h-4.8A.5.5,0,0,0,441.1,490.441Zm12.778-.023a.505.505,0,0,0-.5-.418h-3.95a.5.5,0,0,0-.5.557c.046.476.075.957.075,1.443s-.029.967-.075,1.443a.5.5,0,0,0,.5.557h3.95a.505.505,0,0,0,.5-.418,10.073,10.073,0,0,0,0-3.164ZM434.626,494h3.95a.5.5,0,0,0,.5-.557c-.046-.476-.075-.957-.075-1.443s.029-.967.075-1.443a.5.5,0,0,0-.5-.557h-3.95a.505.505,0,0,0-.5.418,10.073,10.073,0,0,0,0,3.164A.505.505,0,0,0,434.626,494Zm.581,2.756a10,10,0,0,0,5.949,4.821.5.5,0,0,0,.537-.771,14.645,14.645,0,0,1-2.08-4.439.5.5,0,0,0-.477-.367h-3.49A.508.508,0,0,0,435.207,496.756Zm17.586,0a.508.508,0,0,0-.439-.756h-3.49a.5.5,0,0,0-.477.367,14.645,14.645,0,0,1-2.08,4.439.5.5,0,0,0,.537.771A10,10,0,0,0,452.793,496.756ZM435.646,488h3.49a.5.5,0,0,0,.477-.367,14.645,14.645,0,0,1,2.08-4.439.5.5,0,0,0-.537-.771,10,10,0,0,0-5.949,4.821A.508.508,0,0,0,435.646,488Zm17.147-.756a10,10,0,0,0-5.949-4.821.5.5,0,0,0-.537.771,14.645,14.645,0,0,1,2.08,4.439.5.5,0,0,0,.477.367h3.49A.508.508,0,0,0,452.793,487.244Z" transform="translate(-434 -482.402)" fill="#fff"/>
</svg>
